<?xml version="1.0" encoding="utf-8"?>
<!-- Svg Vector Icons : http://www.onlinewebfonts.com/icon -->
<!DOCTYPE svg PUBLIC "-//W3C//DTD SVG 1.1//EN" "http://www.w3.org/Graphics/SVG/1.1/DTD/svg11.dtd">
<svg version="1.1" xmlns="http://www.w3.org/2000/svg" xmlns:xlink="http://www.w3.org/1999/xlink" x="0px" y="0px" viewBox="0 0 1000 1000" enable-background="new 0 0 1000 1000" xml:space="preserve">
<metadata> Svg Vector Icons : http://www.onlinewebfonts.com/icon </metadata>
<g><path d="M214.7,501.6L427,572l69.3,211.1l187.7-469.1L214.7,501.6z"/><path d="M10,500c0,264.5,225.5,490,490,490c264.5,0,490-225.5,490-490c0-264.5-225.5-490-490-490C235.5,10,10,235.5,10,500z M62.2,500C62.2,256.6,256.6,62.1,500,62.1c243.4,0,437.9,194.5,437.9,437.9c0,243.4-194.5,437.9-437.9,437.9C256.6,937.9,62.2,743.3,62.2,500z"/></g>
</svg>