<?xml version="1.0" encoding="iso-8859-1"?>
<!-- Generator: Adobe Illustrator 19.0.0, SVG Export Plug-In . SVG Version: 6.00 Build 0)  -->
<svg version="1.1" id="Layer_1" xmlns="http://www.w3.org/2000/svg" xmlns:xlink="http://www.w3.org/1999/xlink" x="0px" y="0px"
	 viewBox="0 0 492.308 492.308" style="enable-background:new 0 0 492.308 492.308;" xml:space="preserve">
<g>
	<g>
		<path d="M471.5,223.82h-9.702v-42.264c0-35.649-29.005-64.649-64.654-64.649h-44.043V57.993c0-21.716-17.668-39.385-39.385-39.385
			H53.995C24.221,18.608,0,42.829,0,72.599v5.005v4.995v326.452C0,444.7,29.005,473.7,64.654,473.7h332.49
			c35.649,0,64.654-29,64.654-64.649v-41.308h9.702c11.471,0,20.808-9.336,20.808-20.808V244.627
			C492.308,233.156,482.971,223.82,471.5,223.82z M19.692,77.603v-5.005c0-18.913,15.389-34.298,34.303-34.298h259.721
			c10.861,0,19.692,8.832,19.692,19.692v58.913H53.995c-18.914,0-34.303-15.389-34.303-34.308V77.603z M442.106,409.051
			c0,24.788-20.168,44.957-44.962,44.957H64.654c-24.793,0-44.962-20.168-44.962-44.957V124.269
			c9.334,7.699,21.287,12.329,34.303,12.329h289.26h9.846h44.043c24.793,0,44.962,20.168,44.962,44.957v42.264H335.5l-38.096,71.962
			l38.096,71.961h106.606V409.051z M472.615,346.935c0,0.615-0.5,1.115-1.115,1.115H347.356l-27.673-52.269l27.673-52.269H471.5
			c0.615,0,1.115,0.5,1.115,1.115V346.935z"/>
	</g>
</g>
<g>
	<g>
		<path d="M386.808,262.07c-18.587,0-33.712,15.125-33.712,33.712c0,18.586,15.125,33.711,33.712,33.711
			c18.591,0,33.716-15.125,33.716-33.711C420.524,277.195,405.399,262.07,386.808,262.07z M386.808,309.801
			c-7.731,0-14.019-6.289-14.019-14.019c0-7.731,6.288-14.019,14.019-14.019s14.024,6.289,14.024,14.019
			C400.832,303.512,394.538,309.801,386.808,309.801z"/>
	</g>
</g>
<g>
	<g>
		<rect x="57.57" y="391.641" width="173.332" height="19.692"/>
	</g>
</g>
<g>
</g>
<g>
</g>
<g>
</g>
<g>
</g>
<g>
</g>
<g>
</g>
<g>
</g>
<g>
</g>
<g>
</g>
<g>
</g>
<g>
</g>
<g>
</g>
<g>
</g>
<g>
</g>
<g>
</g>
</svg>
